<?xml version="1.0" encoding="us-ascii" standalone="no"?><svg xmlns="http://www.w3.org/2000/svg" xmlns:xlink="http://www.w3.org/1999/xlink" contentStyleType="text/css" height="1036px" preserveAspectRatio="none" style="width:1884px;height:1036px;background:#FFFFFF;" version="1.1" viewBox="0 0 1884 1036" width="1884px" zoomAndPan="magnify"><defs/><g><rect fill="#DDDDDD" height="1024.9238" style="stroke:#181818;stroke-width:0.5;" width="1388" x="173" y="6"/><text fill="#000000" font-family="sans-serif" font-size="13" font-weight="bold" lengthAdjust="spacing" textLength="42" x="846" y="20.0283">Server</text><rect fill="#FFFFFF" height="844.8574" style="stroke:#181818;stroke-width:1.0;" width="10" x="222" y="112.8242"/><rect fill="#FFFFFF" height="156.4551" style="stroke:#181818;stroke-width:1.0;" width="10" x="846" y="144.1152"/><rect fill="#FFFFFF" height="156.4551" style="stroke:#181818;stroke-width:1.0;" width="10" x="846" y="331.8613"/><rect fill="#FFFFFF" height="156.4551" style="stroke:#181818;stroke-width:1.0;" width="10" x="846" y="519.6074"/><rect fill="#FFFFFF" height="156.4551" style="stroke:#181818;stroke-width:1.0;" width="10" x="846" y="707.3535"/><rect fill="#FFFFFF" height="31.291" style="stroke:#181818;stroke-width:1.0;" width="10" x="846" y="895.0996"/><rect fill="#FFFFFF" height="93.873" style="stroke:#181818;stroke-width:1.0;" width="10" x="1502" y="175.4063"/><rect fill="#FFFFFF" height="93.873" style="stroke:#181818;stroke-width:1.0;" width="10" x="1502" y="363.1523"/><rect fill="#FFFFFF" height="93.873" style="stroke:#181818;stroke-width:1.0;" width="10" x="1502" y="550.8984"/><rect fill="#FFFFFF" height="93.873" style="stroke:#181818;stroke-width:1.0;" width="10" x="1502" y="738.6445"/><line style="stroke:#181818;stroke-width:0.5;stroke-dasharray:5.0,5.0;" x1="14" x2="14" y1="79.5332" y2="975.6816"/><line style="stroke:#181818;stroke-width:0.5;stroke-dasharray:5.0,5.0;" x1="227" x2="227" y1="79.5332" y2="975.6816"/><line style="stroke:#181818;stroke-width:0.5;stroke-dasharray:5.0,5.0;" x1="851" x2="851" y1="79.5332" y2="975.6816"/><line style="stroke:#181818;stroke-width:0.5;stroke-dasharray:5.0,5.0;" x1="1507" x2="1507" y1="79.5332" y2="975.6816"/><line style="stroke:#181818;stroke-width:0.5;stroke-dasharray:5.0,5.0;" x1="1869" x2="1869" y1="79.5332" y2="975.6816"/><rect fill="#E2E2F0" height="32.6211" rx="2.5" ry="2.5" style="stroke:#181818;stroke-width:0.5;" width="18" x="5" y="45.9121"/><text fill="#000000" font-family="sans-serif" font-size="14" lengthAdjust="spacing" textLength="4" x="12" y="68.0195">&#160;</text><rect fill="#E2E2F0" height="32.6211" rx="2.5" ry="2.5" style="stroke:#181818;stroke-width:0.5;" width="18" x="5" y="974.6816"/><text fill="#000000" font-family="sans-serif" font-size="14" lengthAdjust="spacing" textLength="4" x="12" y="996.7891">&#160;</text><rect fill="#E2E2F0" height="51.2422" rx="2.5" ry="2.5" style="stroke:#181818;stroke-width:0.5;" width="100" x="177" y="27.291"/><text fill="#000000" font-family="sans-serif" font-size="14" font-style="italic" lengthAdjust="spacing" textLength="86" x="184" y="49.3984">&#171;component&#187;</text><text fill="#000000" font-family="sans-serif" font-size="14" lengthAdjust="spacing" textLength="62" x="196" y="68.0195">Controller</text><rect fill="#E2E2F0" height="51.2422" rx="2.5" ry="2.5" style="stroke:#181818;stroke-width:0.5;" width="100" x="177" y="974.6816"/><text fill="#000000" font-family="sans-serif" font-size="14" font-style="italic" lengthAdjust="spacing" textLength="86" x="184" y="996.7891">&#171;component&#187;</text><text fill="#000000" font-family="sans-serif" font-size="14" lengthAdjust="spacing" textLength="62" x="196" y="1015.4102">Controller</text><rect fill="#E2E2F0" height="51.2422" rx="2.5" ry="2.5" style="stroke:#181818;stroke-width:0.5;" width="100" x="801" y="27.291"/><text fill="#000000" font-family="sans-serif" font-size="14" font-style="italic" lengthAdjust="spacing" textLength="86" x="808" y="49.3984">&#171;component&#187;</text><text fill="#000000" font-family="sans-serif" font-size="14" lengthAdjust="spacing" textLength="47" x="827.5" y="68.0195">Service</text><rect fill="#E2E2F0" height="51.2422" rx="2.5" ry="2.5" style="stroke:#181818;stroke-width:0.5;" width="100" x="801" y="974.6816"/><text fill="#000000" font-family="sans-serif" font-size="14" font-style="italic" lengthAdjust="spacing" textLength="86" x="808" y="996.7891">&#171;component&#187;</text><text fill="#000000" font-family="sans-serif" font-size="14" lengthAdjust="spacing" textLength="47" x="827.5" y="1015.4102">Service</text><rect fill="#E2E2F0" height="51.2422" rx="2.5" ry="2.5" style="stroke:#181818;stroke-width:0.5;" width="100" x="1457" y="27.291"/><text fill="#000000" font-family="sans-serif" font-size="14" font-style="italic" lengthAdjust="spacing" textLength="86" x="1464" y="49.3984">&#171;component&#187;</text><text fill="#000000" font-family="sans-serif" font-size="14" lengthAdjust="spacing" textLength="68" x="1473" y="68.0195">Repository</text><rect fill="#E2E2F0" height="51.2422" rx="2.5" ry="2.5" style="stroke:#181818;stroke-width:0.5;" width="100" x="1457" y="974.6816"/><text fill="#000000" font-family="sans-serif" font-size="14" font-style="italic" lengthAdjust="spacing" textLength="86" x="1464" y="996.7891">&#171;component&#187;</text><text fill="#000000" font-family="sans-serif" font-size="14" lengthAdjust="spacing" textLength="68" x="1473" y="1015.4102">Repository</text><rect fill="#E2E2F0" height="32.6211" rx="2.5" ry="2.5" style="stroke:#181818;stroke-width:0.5;" width="18" x="1860" y="45.9121"/><text fill="#000000" font-family="sans-serif" font-size="14" lengthAdjust="spacing" textLength="4" x="1867" y="68.0195">&#160;</text><rect fill="#E2E2F0" height="32.6211" rx="2.5" ry="2.5" style="stroke:#181818;stroke-width:0.5;" width="18" x="1860" y="974.6816"/><text fill="#000000" font-family="sans-serif" font-size="14" lengthAdjust="spacing" textLength="4" x="1867" y="996.7891">&#160;</text><rect fill="#FFFFFF" height="844.8574" style="stroke:#181818;stroke-width:1.0;" width="10" x="222" y="112.8242"/><rect fill="#FFFFFF" height="156.4551" style="stroke:#181818;stroke-width:1.0;" width="10" x="846" y="144.1152"/><rect fill="#FFFFFF" height="156.4551" style="stroke:#181818;stroke-width:1.0;" width="10" x="846" y="331.8613"/><rect fill="#FFFFFF" height="156.4551" style="stroke:#181818;stroke-width:1.0;" width="10" x="846" y="519.6074"/><rect fill="#FFFFFF" height="156.4551" style="stroke:#181818;stroke-width:1.0;" width="10" x="846" y="707.3535"/><rect fill="#FFFFFF" height="31.291" style="stroke:#181818;stroke-width:1.0;" width="10" x="846" y="895.0996"/><rect fill="#FFFFFF" height="93.873" style="stroke:#181818;stroke-width:1.0;" width="10" x="1502" y="175.4063"/><rect fill="#FFFFFF" height="93.873" style="stroke:#181818;stroke-width:1.0;" width="10" x="1502" y="363.1523"/><rect fill="#FFFFFF" height="93.873" style="stroke:#181818;stroke-width:1.0;" width="10" x="1502" y="550.8984"/><rect fill="#FFFFFF" height="93.873" style="stroke:#181818;stroke-width:1.0;" width="10" x="1502" y="738.6445"/><ellipse cx="13.5" cy="112.0742" fill="none" rx="4" ry="4" style="stroke:#181818;stroke-width:1.5;"/><polygon fill="#181818" points="210,108.8242,220,112.8242,210,116.8242,214,112.8242" style="stroke:#181818;stroke-width:1.0;"/><line style="stroke:#181818;stroke-width:1.0;" x1="18" x2="216" y1="112.8242" y2="112.8242"/><text fill="#000000" font-family="sans-serif" font-size="13" font-weight="bold" lengthAdjust="spacing" textLength="7" x="21" y="107.5615">1</text><text fill="#000000" font-family="sans-serif" font-size="13" lengthAdjust="spacing" textLength="178" x="32" y="107.5615">GET /peak-power-consumption</text><polygon fill="#181818" points="834,140.1152,844,144.1152,834,148.1152,838,144.1152" style="stroke:#181818;stroke-width:1.0;"/><line style="stroke:#181818;stroke-width:1.0;" x1="232" x2="840" y1="144.1152" y2="144.1152"/><text fill="#000000" font-family="sans-serif" font-size="13" font-weight="bold" lengthAdjust="spacing" textLength="7" x="239" y="138.8525">2</text><text fill="#000000" font-family="sans-serif" font-size="13" lengthAdjust="spacing" textLength="272" x="250" y="138.8525">getDevicesByDeviceTypeID(powerMeterTypeID)</text><polygon fill="#181818" points="1490,171.4063,1500,175.4063,1490,179.4063,1494,175.4063" style="stroke:#181818;stroke-width:1.0;"/><line style="stroke:#181818;stroke-width:1.0;" x1="856" x2="1496" y1="175.4063" y2="175.4063"/><text fill="#000000" font-family="sans-serif" font-size="13" font-weight="bold" lengthAdjust="spacing" textLength="7" x="863" y="170.1436">3</text><text fill="#000000" font-family="sans-serif" font-size="13" lengthAdjust="spacing" textLength="272" x="874" y="170.1436">getDevicesByDeviceTypeID(powerMeterTypeID)</text><ellipse cx="1868.5" cy="205.9473" fill="none" rx="4" ry="4" style="stroke:#181818;stroke-width:1.5;"/><polygon fill="#181818" points="1851.5,202.6973,1861.5,206.6973,1851.5,210.6973,1855.5,206.6973" style="stroke:#181818;stroke-width:1.0;"/><line style="stroke:#181818;stroke-width:1.0;" x1="1512" x2="1857.5" y1="206.6973" y2="206.6973"/><text fill="#000000" font-family="sans-serif" font-size="13" font-weight="bold" lengthAdjust="spacing" textLength="7" x="1519" y="201.4346">4</text><text fill="#000000" font-family="sans-serif" font-size="13" lengthAdjust="spacing" textLength="114" x="1530" y="201.4346">findByDeviceTypeID</text><polygon fill="#181818" points="1523,233.9883,1513,237.9883,1523,241.9883,1519,237.9883" style="stroke:#181818;stroke-width:1.0;"/><ellipse cx="1868.5" cy="237.2383" fill="none" rx="4" ry="4" style="stroke:#181818;stroke-width:1.5;"/><line style="stroke:#181818;stroke-width:1.0;stroke-dasharray:2.0,2.0;" x1="1517" x2="1864" y1="237.9883" y2="237.9883"/><text fill="#000000" font-family="sans-serif" font-size="13" font-weight="bold" lengthAdjust="spacing" textLength="7" x="1529" y="232.7256">5</text><text fill="#000000" font-family="sans-serif" font-size="13" lengthAdjust="spacing" textLength="57" x="1540" y="232.7256">deviceList</text><polygon fill="#181818" points="867,265.2793,857,269.2793,867,273.2793,863,269.2793" style="stroke:#181818;stroke-width:1.0;"/><line style="stroke:#181818;stroke-width:1.0;stroke-dasharray:2.0,2.0;" x1="861" x2="1506" y1="269.2793" y2="269.2793"/><text fill="#000000" font-family="sans-serif" font-size="13" font-weight="bold" lengthAdjust="spacing" textLength="7" x="873" y="264.0166">6</text><text fill="#000000" font-family="sans-serif" font-size="13" lengthAdjust="spacing" textLength="57" x="884" y="264.0166">deviceList</text><polygon fill="#181818" points="243,296.5703,233,300.5703,243,304.5703,239,300.5703" style="stroke:#181818;stroke-width:1.0;"/><line style="stroke:#181818;stroke-width:1.0;" x1="237" x2="850" y1="300.5703" y2="300.5703"/><text fill="#000000" font-family="sans-serif" font-size="13" font-weight="bold" lengthAdjust="spacing" textLength="7" x="249" y="295.3076">7</text><text fill="#000000" font-family="sans-serif" font-size="13" lengthAdjust="spacing" textLength="57" x="260" y="295.3076">deviceList</text><polygon fill="#181818" points="834,327.8613,844,331.8613,834,335.8613,838,331.8613" style="stroke:#181818;stroke-width:1.0;"/><line style="stroke:#181818;stroke-width:1.0;" x1="232" x2="840" y1="331.8613" y2="331.8613"/><text fill="#000000" font-family="sans-serif" font-size="13" font-weight="bold" lengthAdjust="spacing" textLength="7" x="239" y="326.5986">8</text><text fill="#000000" font-family="sans-serif" font-size="13" lengthAdjust="spacing" textLength="268" x="250" y="326.5986">getDevicesByDeviceType(powerSourceTypeID)</text><polygon fill="#181818" points="1490,359.1523,1500,363.1523,1490,367.1523,1494,363.1523" style="stroke:#181818;stroke-width:1.0;"/><line style="stroke:#181818;stroke-width:1.0;" x1="856" x2="1496" y1="363.1523" y2="363.1523"/><text fill="#000000" font-family="sans-serif" font-size="13" font-weight="bold" lengthAdjust="spacing" textLength="7" x="863" y="357.8896">9</text><text fill="#000000" font-family="sans-serif" font-size="13" lengthAdjust="spacing" textLength="268" x="874" y="357.8896">getDevicesByDeviceType(powerSourceTypeID)</text><ellipse cx="1868.5" cy="393.6934" fill="none" rx="4" ry="4" style="stroke:#181818;stroke-width:1.5;"/><polygon fill="#181818" points="1851.5,390.4434,1861.5,394.4434,1851.5,398.4434,1855.5,394.4434" style="stroke:#181818;stroke-width:1.0;"/><line style="stroke:#181818;stroke-width:1.0;" x1="1512" x2="1857.5" y1="394.4434" y2="394.4434"/><text fill="#000000" font-family="sans-serif" font-size="13" font-weight="bold" lengthAdjust="spacing" textLength="14" x="1519" y="389.1807">10</text><text fill="#000000" font-family="sans-serif" font-size="13" lengthAdjust="spacing" textLength="114" x="1537" y="389.1807">findByDeviceTypeID</text><polygon fill="#181818" points="1523,421.7344,1513,425.7344,1523,429.7344,1519,425.7344" style="stroke:#181818;stroke-width:1.0;"/><ellipse cx="1868.5" cy="424.9844" fill="none" rx="4" ry="4" style="stroke:#181818;stroke-width:1.5;"/><line style="stroke:#181818;stroke-width:1.0;stroke-dasharray:2.0,2.0;" x1="1517" x2="1864" y1="425.7344" y2="425.7344"/><text fill="#000000" font-family="sans-serif" font-size="13" font-weight="bold" lengthAdjust="spacing" textLength="14" x="1529" y="420.4717">11</text><text fill="#000000" font-family="sans-serif" font-size="13" lengthAdjust="spacing" textLength="57" x="1547" y="420.4717">deviceList</text><polygon fill="#181818" points="867,453.0254,857,457.0254,867,461.0254,863,457.0254" style="stroke:#181818;stroke-width:1.0;"/><line style="stroke:#181818;stroke-width:1.0;stroke-dasharray:2.0,2.0;" x1="861" x2="1506" y1="457.0254" y2="457.0254"/><text fill="#000000" font-family="sans-serif" font-size="13" font-weight="bold" lengthAdjust="spacing" textLength="14" x="873" y="451.7627">12</text><text fill="#000000" font-family="sans-serif" font-size="13" lengthAdjust="spacing" textLength="57" x="891" y="451.7627">deviceList</text><polygon fill="#181818" points="243,484.3164,233,488.3164,243,492.3164,239,488.3164" style="stroke:#181818;stroke-width:1.0;"/><line style="stroke:#181818;stroke-width:1.0;" x1="237" x2="850" y1="488.3164" y2="488.3164"/><text fill="#000000" font-family="sans-serif" font-size="13" font-weight="bold" lengthAdjust="spacing" textLength="14" x="249" y="483.0537">13</text><text fill="#000000" font-family="sans-serif" font-size="13" lengthAdjust="spacing" textLength="57" x="267" y="483.0537">deviceList</text><polygon fill="#181818" points="834,515.6074,844,519.6074,834,523.6074,838,519.6074" style="stroke:#181818;stroke-width:1.0;"/><line style="stroke:#181818;stroke-width:1.0;" x1="232" x2="840" y1="519.6074" y2="519.6074"/><text fill="#000000" font-family="sans-serif" font-size="13" font-weight="bold" lengthAdjust="spacing" textLength="14" x="239" y="514.3447">14</text><text fill="#000000" font-family="sans-serif" font-size="13" lengthAdjust="spacing" textLength="569" x="257" y="514.3447">getDeviceReadingsBySensorTypeAndTimePeriod (powerMeterDeviceID, sensorTypeID, datePeriod)</text><polygon fill="#181818" points="1490,546.8984,1500,550.8984,1490,554.8984,1494,550.8984" style="stroke:#181818;stroke-width:1.0;"/><line style="stroke:#181818;stroke-width:1.0;" x1="856" x2="1496" y1="550.8984" y2="550.8984"/><text fill="#000000" font-family="sans-serif" font-size="13" font-weight="bold" lengthAdjust="spacing" textLength="14" x="863" y="545.6357">15</text><text fill="#000000" font-family="sans-serif" font-size="13" lengthAdjust="spacing" textLength="601" x="881" y="545.6357">findByDeviceIDAndSensorTypeAndDatePeriodBetween (powerMeterDeviceID, sensorTypeID, datePeriod)</text><ellipse cx="1868.5" cy="581.4395" fill="none" rx="4" ry="4" style="stroke:#181818;stroke-width:1.5;"/><polygon fill="#181818" points="1851.5,578.1895,1861.5,582.1895,1851.5,586.1895,1855.5,582.1895" style="stroke:#181818;stroke-width:1.0;"/><line style="stroke:#181818;stroke-width:1.0;" x1="1512" x2="1857.5" y1="582.1895" y2="582.1895"/><text fill="#000000" font-family="sans-serif" font-size="13" font-weight="bold" lengthAdjust="spacing" textLength="14" x="1519" y="576.9268">16</text><text fill="#000000" font-family="sans-serif" font-size="13" lengthAdjust="spacing" textLength="114" x="1537" y="576.9268">findByDeviceTypeID</text><polygon fill="#181818" points="1523,609.4805,1513,613.4805,1523,617.4805,1519,613.4805" style="stroke:#181818;stroke-width:1.0;"/><ellipse cx="1868.5" cy="612.7305" fill="none" rx="4" ry="4" style="stroke:#181818;stroke-width:1.5;"/><line style="stroke:#181818;stroke-width:1.0;stroke-dasharray:2.0,2.0;" x1="1517" x2="1864" y1="613.4805" y2="613.4805"/><text fill="#000000" font-family="sans-serif" font-size="13" font-weight="bold" lengthAdjust="spacing" textLength="14" x="1529" y="608.2178">17</text><text fill="#000000" font-family="sans-serif" font-size="13" lengthAdjust="spacing" textLength="70" x="1547" y="608.2178">readingsList</text><polygon fill="#181818" points="867,640.7715,857,644.7715,867,648.7715,863,644.7715" style="stroke:#181818;stroke-width:1.0;"/><line style="stroke:#181818;stroke-width:1.0;stroke-dasharray:2.0,2.0;" x1="861" x2="1506" y1="644.7715" y2="644.7715"/><text fill="#000000" font-family="sans-serif" font-size="13" font-weight="bold" lengthAdjust="spacing" textLength="14" x="873" y="639.5088">18</text><text fill="#000000" font-family="sans-serif" font-size="13" lengthAdjust="spacing" textLength="121" x="891" y="639.5088">powerMeterReadings</text><polygon fill="#181818" points="243,672.0625,233,676.0625,243,680.0625,239,676.0625" style="stroke:#181818;stroke-width:1.0;"/><line style="stroke:#181818;stroke-width:1.0;stroke-dasharray:2.0,2.0;" x1="237" x2="850" y1="676.0625" y2="676.0625"/><text fill="#000000" font-family="sans-serif" font-size="13" font-weight="bold" lengthAdjust="spacing" textLength="14" x="249" y="670.7998">19</text><text fill="#000000" font-family="sans-serif" font-size="13" lengthAdjust="spacing" textLength="121" x="267" y="670.7998">powerMeterReadings</text><polygon fill="#181818" points="834,703.3535,844,707.3535,834,711.3535,838,707.3535" style="stroke:#181818;stroke-width:1.0;"/><line style="stroke:#181818;stroke-width:1.0;" x1="232" x2="840" y1="707.3535" y2="707.3535"/><text fill="#000000" font-family="sans-serif" font-size="13" font-weight="bold" lengthAdjust="spacing" textLength="14" x="239" y="702.0908">20</text><text fill="#000000" font-family="sans-serif" font-size="13" lengthAdjust="spacing" textLength="577" x="257" y="702.0908">getDeviceReadingsBySensorTypeAndTimePeriod (powerSourceDeviceID, sensorTypeID, datePeriod)</text><polygon fill="#181818" points="1490,734.6445,1500,738.6445,1490,742.6445,1494,738.6445" style="stroke:#181818;stroke-width:1.0;"/><line style="stroke:#181818;stroke-width:1.0;" x1="856" x2="1496" y1="738.6445" y2="738.6445"/><text fill="#000000" font-family="sans-serif" font-size="13" font-weight="bold" lengthAdjust="spacing" textLength="14" x="863" y="733.3818">21</text><text fill="#000000" font-family="sans-serif" font-size="13" lengthAdjust="spacing" textLength="609" x="881" y="733.3818">findByDeviceIDAndSensorTypeAndDatePeriodBetween (powerSourceDeviceID, sensorTypeID, datePeriod)</text><ellipse cx="1868.5" cy="769.1855" fill="none" rx="4" ry="4" style="stroke:#181818;stroke-width:1.5;"/><polygon fill="#181818" points="1851.5,765.9355,1861.5,769.9355,1851.5,773.9355,1855.5,769.9355" style="stroke:#181818;stroke-width:1.0;"/><line style="stroke:#181818;stroke-width:1.0;" x1="1512" x2="1857.5" y1="769.9355" y2="769.9355"/><text fill="#000000" font-family="sans-serif" font-size="13" font-weight="bold" lengthAdjust="spacing" textLength="14" x="1519" y="764.6729">22</text><text fill="#000000" font-family="sans-serif" font-size="13" lengthAdjust="spacing" textLength="315" x="1537" y="764.6729">findByDeviceIDAndSensorTypeAndDatePeriodBetween</text><polygon fill="#181818" points="1523,797.2266,1513,801.2266,1523,805.2266,1519,801.2266" style="stroke:#181818;stroke-width:1.0;"/><ellipse cx="1868.5" cy="800.4766" fill="none" rx="4" ry="4" style="stroke:#181818;stroke-width:1.5;"/><line style="stroke:#181818;stroke-width:1.0;stroke-dasharray:2.0,2.0;" x1="1517" x2="1864" y1="801.2266" y2="801.2266"/><text fill="#000000" font-family="sans-serif" font-size="13" font-weight="bold" lengthAdjust="spacing" textLength="14" x="1529" y="795.9639">23</text><text fill="#000000" font-family="sans-serif" font-size="13" lengthAdjust="spacing" textLength="70" x="1547" y="795.9639">readingsList</text><polygon fill="#181818" points="867,828.5176,857,832.5176,867,836.5176,863,832.5176" style="stroke:#181818;stroke-width:1.0;"/><line style="stroke:#181818;stroke-width:1.0;stroke-dasharray:2.0,2.0;" x1="861" x2="1506" y1="832.5176" y2="832.5176"/><text fill="#000000" font-family="sans-serif" font-size="13" font-weight="bold" lengthAdjust="spacing" textLength="14" x="873" y="827.2549">24</text><text fill="#000000" font-family="sans-serif" font-size="13" lengthAdjust="spacing" textLength="129" x="891" y="827.2549">powerSourceReadings</text><polygon fill="#181818" points="243,859.8086,233,863.8086,243,867.8086,239,863.8086" style="stroke:#181818;stroke-width:1.0;"/><line style="stroke:#181818;stroke-width:1.0;stroke-dasharray:2.0,2.0;" x1="237" x2="850" y1="863.8086" y2="863.8086"/><text fill="#000000" font-family="sans-serif" font-size="13" font-weight="bold" lengthAdjust="spacing" textLength="14" x="249" y="858.5459">25</text><text fill="#000000" font-family="sans-serif" font-size="13" lengthAdjust="spacing" textLength="129" x="267" y="858.5459">powerSourceReadings</text><polygon fill="#181818" points="834,891.0996,844,895.0996,834,899.0996,838,895.0996" style="stroke:#181818;stroke-width:1.0;"/><line style="stroke:#181818;stroke-width:1.0;" x1="232" x2="840" y1="895.0996" y2="895.0996"/><text fill="#000000" font-family="sans-serif" font-size="13" font-weight="bold" lengthAdjust="spacing" textLength="14" x="239" y="889.8369">26</text><text fill="#000000" font-family="sans-serif" font-size="13" lengthAdjust="spacing" textLength="484" x="257" y="889.8369">getMaxPowerConsumption(powerMeterReadings, powerSourceReadings, timeDelta)</text><polygon fill="#181818" points="243,922.3906,233,926.3906,243,930.3906,239,926.3906" style="stroke:#181818;stroke-width:1.0;"/><line style="stroke:#181818;stroke-width:1.0;stroke-dasharray:2.0,2.0;" x1="237" x2="850" y1="926.3906" y2="926.3906"/><text fill="#000000" font-family="sans-serif" font-size="13" font-weight="bold" lengthAdjust="spacing" textLength="14" x="249" y="921.1279">27</text><text fill="#000000" font-family="sans-serif" font-size="13" lengthAdjust="spacing" textLength="170" x="267" y="921.1279">maxPowerConsumptionValue</text><ellipse cx="13.5" cy="956.9316" fill="none" rx="4" ry="4" style="stroke:#181818;stroke-width:1.5;"/><polygon fill="#181818" points="30.5,953.6816,20.5,957.6816,30.5,961.6816,26.5,957.6816" style="stroke:#181818;stroke-width:1.0;"/><line style="stroke:#181818;stroke-width:1.0;stroke-dasharray:2.0,2.0;" x1="28.5" x2="226" y1="957.6816" y2="957.6816"/><text fill="#000000" font-family="sans-serif" font-size="13" font-weight="bold" lengthAdjust="spacing" textLength="14" x="31" y="952.4189">28</text><text fill="#000000" font-family="sans-serif" font-size="13" lengthAdjust="spacing" textLength="109" x="49" y="952.4189">JSON / Status 200</text><!--SRC=[xLRHRfim57ttLrYyf9F2gFQ8gaXBcRPCwnOLr7SNtsNMmFRiIzly_GmaOD8k2MdwDdYnqJt7vvvx44n-8MeRHv4kcCIgBDxdgemi_Ab0vX1omLQ6bOGGpGoAN6XNHGDtCqk_PDcIa7lrH8CKp0EOO51rhIGQLHHWwkAWtmPNL-uGhIH8dCq6c9f7vD00DkizrRUWbHMepBe1zDiT34XEdSnX4mb3DcUsFOi6XB0AbQpAUp24rArH5Sxy9cBw-LD68mtiTwZL8vWmLz9MfKQXf8FdA1uOWWSXn8Cxiar7CLq19b0lxNpTBhArXaLoqV3U089f7xppU3TeGhOcESQ-vHD9Um92F3l3cUeCYkbF8VcGav3EFXKET3YRU5FuJLWSSleE-3KSNfJZjTdR-4zavyua775DHewezJ9LbTawyVe9xUVyFw130xe5neLSEKzJa5Or8VyeUIPAM88HYbFl3MWXYsHARLTSxxYJs5QF6QZl-o9nXmuK91td7F0HG9ukv2rIO3Q-xSz1htZhy-4yx0JY04Ldyha6tRvAHnayDejld8mHoa-FnX5opfMRjf_N1MSFnn79kM5FovhbklzKNppFu_IbewOKNR8IA92TDoaxNPRF9TwneeB3hTOphlzKOler_V6THZH5XfMb7oul1s3lZ-Gl]--></g></svg>